<svg width="79" height="80" viewBox="0 0 79 80" fill="none" xmlns="http://www.w3.org/2000/svg">
<g filter="url(#filter0_dd_1_65)">
<rect x="12" y="12.5" width="55" height="55" rx="27.5" fill="#F3F3F3" fill-opacity="0.5" shape-rendering="crispEdges"/>
</g>
<path d="M34.0425 34.3778C36.3555 34.9258 38.087 36.2568 39.1063 38.2707C39.3944 38.8399 39.5848 39.4187 39.8035 40.3903C40.0686 41.568 40.4974 42.3927 41.2298 43.1333C42.1407 44.0544 43.3488 44.5675 44.8199 44.6581C45.8759 44.7232 46.0286 44.544 45.4503 43.9179C45.0472 43.4815 44.9292 43.2585 44.9292 42.9326C44.9292 42.6356 45.0023 42.4737 45.2574 42.2056C45.5859 41.8602 46.0363 41.8241 46.5199 42.1042C46.8289 42.2832 49.4855 44.9475 49.6262 45.2196C49.7963 45.5484 49.7715 45.9838 49.5648 46.2957C49.3278 46.6536 46.6907 49.2374 46.4179 49.379C45.7272 49.7377 44.9254 49.2573 44.9254 48.4847C44.9254 48.1469 45.018 47.9621 45.4107 47.5166C45.7489 47.1329 45.8035 46.9118 45.5804 46.8292C45.5066 46.8018 45.0973 46.7646 44.6708 46.7466C43.8362 46.7111 43.285 46.6134 42.5628 46.3727C40.7371 45.7643 39.1775 44.4036 38.3494 42.6965C38.0801 42.1412 37.9287 41.6754 37.7195 40.7582C37.5132 39.8542 37.2771 39.2611 36.8864 38.6654C36.1537 37.5484 34.9733 36.7473 33.6354 36.4592C33.2634 36.3791 32.7245 36.3484 31.1897 36.3199C29.0476 36.2801 28.9962 36.2719 28.7197 35.9221C28.2983 35.3888 28.5034 34.6574 29.1616 34.3465C29.3852 34.2409 29.5334 34.2353 31.5178 34.2576C33.2018 34.2764 33.7188 34.3011 34.0425 34.3778Z" fill="black"/>
<path d="M46.4179 31.6208C46.6907 31.7624 49.3278 34.3462 49.5648 34.7041C49.7976 35.0555 49.8028 35.4671 49.5793 35.8423C49.3918 36.157 46.7177 38.815 46.4603 38.9425C46.0012 39.1698 45.5634 39.1159 45.2574 38.7942C45.0023 38.5261 44.9292 38.3642 44.9292 38.0672C44.9292 37.7413 45.0472 37.5183 45.4503 37.0819C46.0286 36.4558 45.8759 36.2766 44.8199 36.3417C43.3332 36.4333 42.1865 36.925 41.1886 37.8987C40.7864 38.2913 40.6135 38.3551 40.4544 38.1698C40.2948 37.984 39.6899 36.7971 39.6899 36.6699C39.6899 36.4304 39.8733 36.1989 40.3608 35.8226C41.7097 34.7817 43.2533 34.2416 44.8906 34.2379C45.8169 34.2358 45.9297 34.0721 45.4107 33.4832C45.018 33.0377 44.9254 32.8529 44.9254 32.5151C44.9254 31.7432 45.7278 31.2624 46.4179 31.6208Z" fill="black"/>
<path d="M36.9441 42.7845C37.0758 42.8547 37.7811 44.1583 37.7811 44.3316C37.7811 44.5694 37.5968 44.8017 37.1103 45.1772C36.2286 45.8577 35.4055 46.2661 34.3945 46.5247C33.6034 46.727 33.1542 46.7607 31.2494 46.7606C29.5829 46.7605 29.3764 46.7497 29.1592 46.6515C28.3167 46.2706 28.2788 45.2103 29.0927 44.792C29.3301 44.67 29.421 44.6643 31.2494 44.6579C32.853 44.6524 33.2345 44.6343 33.6354 44.5446C34.5735 44.3347 35.5289 43.8299 36.1822 43.1989C36.6845 42.7139 36.7473 42.6797 36.9441 42.7845Z" fill="black"/>
<defs>
<filter id="filter0_dd_1_65" x="0" y="0.5" width="79" height="79" filterUnits="userSpaceOnUse" color-interpolation-filters="sRGB">
<feFlood flood-opacity="0" result="BackgroundImageFix"/>
<feColorMatrix in="SourceAlpha" type="matrix" values="0 0 0 0 0 0 0 0 0 0 0 0 0 0 0 0 0 0 127 0" result="hardAlpha"/>
<feOffset dx="4" dy="4"/>
<feGaussianBlur stdDeviation="4"/>
<feComposite in2="hardAlpha" operator="out"/>
<feColorMatrix type="matrix" values="0 0 0 0 0 0 0 0 0 0 0 0 0 0 0 0 0 0 0.5 0"/>
<feBlend mode="luminosity" in2="BackgroundImageFix" result="effect1_dropShadow_1_65"/>
<feColorMatrix in="SourceAlpha" type="matrix" values="0 0 0 0 0 0 0 0 0 0 0 0 0 0 0 0 0 0 127 0" result="hardAlpha"/>
<feOffset dx="-4" dy="-4"/>
<feGaussianBlur stdDeviation="4"/>
<feComposite in2="hardAlpha" operator="out"/>
<feColorMatrix type="matrix" values="0 0 0 0 0.254167 0 0 0 0 0.254167 0 0 0 0 0.254167 0 0 0 1 0"/>
<feBlend mode="color-dodge" in2="effect1_dropShadow_1_65" result="effect2_dropShadow_1_65"/>
<feBlend mode="normal" in="SourceGraphic" in2="effect2_dropShadow_1_65" result="shape"/>
</filter>
</defs>
</svg>
